<svg version="1.1" id="Layer_1" xmlns="http://www.w3.org/2000/svg" xmlns:xlink="http://www.w3.org/1999/xlink" x="0px" y="0px" viewBox="0 0 300 300" enable-background="new 0 0 300 300" xml:space="preserve" class="w-6 h-6 svgicon">
<g>
	<g>
		<path fill="none" stroke="#464c72" stroke-width="2" stroke-linecap="round" stroke-linejoin="round" stroke-miterlimit="10" d="
			M47.62,160.26c1.01,0.92-0.01,1.84-0.04,2.75c-0.16,5.25-0.3,10.51-0.73,15.75c-0.65,7.99-0.83,15.99-1.17,23.99
			c-0.2,4.69,0.25,9.47-0.95,14.12c-0.22,0.84,0.13,1.82,0.14,2.74c0.07,8.24,0.07,16.48,0.21,24.72
			c0.15,9.04,0.51,18.07,0.56,27.11c0.03,5.37,0.33,10.75,0.52,16.12c0.08,2.31,0.59,2.79,2.93,2.93
			c9.28,0.58,18.55,1.26,27.84,1.71c8.73,0.43,17.46,0.94,26.19,1.44c9.58,0.55,19.17,0.99,28.75,1.46
			c6.78,0.33,13.55,0.73,20.33,1.15c3.42,0.21,6.86,0.4,10.26,0.38c6.9-0.03,13.8-0.57,20.7-0.82c3.11-0.11,6.23-0.18,9.34-0.34
			c9.58-0.5,19.17-0.8,28.75-1.14c4.76-0.17,9.52-0.22,14.29-0.38c5.86-0.21,11.72-0.46,17.58-0.74c1.7-0.08,2.18-0.68,2.2-2.37
			c0.11-12.03,0.33-24.05,0.44-36.08c0.1-11.78,0.01-23.57,0.11-35.35c0.01-1.34-0.11-2.69-0.17-4.03"></path>
		<path fill="none" stroke="#464c72" stroke-width="2" stroke-linecap="round" stroke-linejoin="round" stroke-miterlimit="10" d="
			M86.45,117.22c-0.8,1.28-0.22,2.69-0.35,4.03c-0.4,4.09-0.84,8.17-1.09,12.27c-0.36,5.88,1.74,10.71,6.17,14.69
			c3.05,2.74,6.59,4.57,10.05,6.65c4.66,2.8,9.62,2.92,14.71,3.03c9.89,0.21,19.78,0.33,29.67,0.4c4.39,0.03,8.79,0.35,13.19,0.32
			c1.54-0.01,3.09,0.1,4.57-0.38c1.7-0.55,3.03,0.44,4.49,0.93"></path>
		<path fill="#464c72" stroke="#464c72" stroke-width="2" stroke-linecap="round" stroke-linejoin="round" stroke-miterlimit="10" d="
			M103.48,157.14c-0.47,0.66-1.17,0.55-1.83,0.55c-5.25,0-10.5,0.05-15.75-0.01c-3.66-0.04-7.35-0.02-10.98-0.45
			c-1.6-0.19-3.07,0.24-4.59,0.08c-4.15-0.44-8.3-0.36-12.46-0.34c-2.69,0.01-5.37,0.12-8.06,0.17c-0.88,0.02-1.59,0.22-2.02,1.1
			c-3.41,6.9-6.79,13.82-9.88,20.88c-5,11.42-10.01,22.83-15.01,34.25c-0.63,1.44-0.13,2.24,1.46,2.18
			c6.29-0.21,12.58-0.35,18.86-0.75c8.2-0.52,16.36,0.44,24.54,0.5c3.04,0.02,6.11,0.13,9.16,0.27c8.85,0.41,17.7,0.88,26.56,1.27
			c5.43,0.24,10.87,0.33,16.3,0.57c7.02,0.32,14.04,0.74,21.06,1.08c4.52,0.22,9.04,0.27,13.55,0.59c3.48,0.24,6.98-0.08,10.45,0.49
			c1.24,0.2,1.72-0.8,1.99-1.81c0.11-0.4,0.01-0.85,0.02-1.28c0.12-9.89,0.12-19.78,0.4-29.67c0.21-7.45,0.04-14.9,0.13-22.35
			c0.01-1.04-0.1-2.08-0.18-3.11c-0.06-0.84,0.06-1.61,0.74-2.2"></path>
		<path fill="none" stroke="#464c72" stroke-width="2" stroke-linecap="round" stroke-linejoin="round" stroke-miterlimit="10" d="
			M119.78,19.6c-2.02-1.88-4.75-2.32-7.18-3.2c-5.94-2.18-12.03-3.95-18.11-5.75c-4.54-1.34-9.15-2.47-13.73-3.69
			c-3.61-0.96-5.21,0.06-5.8,3.86c-0.45,2.94-0.59,5.99-0.38,8.96c0.52,7.33,0.62,14.69,1.71,21.99c0.71,4.77,1.32,9.55,2.24,14.28
			c0.12,0.6,0.23,1.11,0.75,1.46"></path>
		<path fill="none" stroke="#464c72" stroke-width="2" stroke-linecap="round" stroke-linejoin="round" stroke-miterlimit="10" d="
			M72.89,156.59c-0.43-4.33-0.5-8.74-1.37-12.99c-1.1-5.38-0.67-10.76-0.8-16.14c-0.07-2.87,0.13-5.75,0.08-8.61
			c-0.1-5.21,0.15-10.39,0.5-15.57c0.25-3.67,0.56-7.34,0.96-11c0.29-2.67,0.64-5.36,0.83-8.05c0.26-3.65,0.97-7.24,1.8-10.81
			c1.19-5.15,2.42-10.3,4.45-15.18c1.43-3.45,3.05-6.85,4.94-10.07c5.41-9.21,12.23-17.12,21.75-22.38
			c3.52-1.94,7.26-3.31,10.95-4.85c4.29-1.78,8.81-2.1,13.23-2.98c7.69-1.53,15.46-1.31,23.26-0.81c7.51,0.48,14.79,1.92,21.79,4.64
			c7.12,2.76,13.93,6.11,19.8,11.14c1.01,0.87,2.33,1.23,3.65,1.28c9.37,0.4,18.71,1.03,28.03,2.16c4.15,0.5,8.31,0.85,12.45,1.5
			c4.23,0.66,5.54,2.63,4.4,6.8c-1.82,6.63-4.67,12.82-7.88,18.86c-3.23,6.07-6.86,11.89-10.99,17.4c-0.52,0.69-0.78,1.2-0.43,2.23
			c0.79,2.34,1.43,4.77,1.35,7.3"></path>
		<path fill="none" stroke="#464c72" stroke-width="2" stroke-linecap="round" stroke-linejoin="round" stroke-miterlimit="10" d="
			M165.38,219.78c0.29,0.59,0.18,1.22,0.18,1.83c0.01,7.57,0.16,15.15-0.06,22.71c-0.11,3.78-0.29,7.57-0.3,11.36
			c-0.01,7.51,0.07,15.02-0.02,22.53c-0.07,5.98-0.34,11.97-0.53,17.95"></path>
		<path fill="#464c72" stroke="#fff" stroke-width="2" stroke-linecap="round" stroke-linejoin="round" stroke-miterlimit="10" d="
			M168.13,159.16c0.47-0.42,1.02-0.55,1.65-0.56c2.5-0.04,5.01-0.13,7.51-0.17c5.25-0.08,10.51,0.02,15.75-0.23
			c5.32-0.25,10.63,0.06,15.93-0.17c7.63-0.32,15.28,0.17,22.89-0.24c4.85-0.26,9.65,0.13,14.47,0.03c2.03-0.05,3.16,0.62,4.06,2.42
			c4.33,8.64,8.8,17.21,13.14,25.85c4.5,8.95,8.67,18.07,13.4,26.91c0.14,0.27,0.12,0.49,0.17,0.79c-0.46,0.95-1.33,0.88-2.21,0.88
			c-6.35-0.02-12.71,0.11-19.05,0.53c-0.79,0.05-1.59-0.17-2.38-0.16c-8.73,0.11-17.46,0.2-26.19,0.37
			c-6.35,0.12-12.7,0.33-19.05,0.54c-6.35,0.21-12.7,0.45-19.05,0.75c-1.35,0.06-1.99-0.45-2.4-1.67c-2.6-7.7-5.31-15.37-7.84-23.09
			c-3.07-9.38-6.01-18.79-8.98-28.2c-0.51-1.61-0.99-3.21-2.03-4.58"></path>
		<path fill="#464c72" stroke="#464c72" stroke-width="2" stroke-linecap="round" stroke-linejoin="round" stroke-miterlimit="10" d="
			M156.96,109.34c2.35,0.05,4.69-0.09,6.99,0.85c0.98,0.4,1.18,0.8,1.28,1.72c0.2,1.74,0.33,3.49,1.06,5.14c1,2.28,1.16,4.64,1,7.14
			c-0.16,2.46-0.05,4.96-0.83,7.31c-0.91,2.73-1.72,5.61-4.54,7.15c-2.87,1.57-5.64,0.74-6.94-2.21c-1.1-2.5-1.58-5.06-1.2-7.88
			c0.27-2.01,0.33-4.06,0.86-6.02c0.23-0.83,0.1-1.98,1.24-2.39"></path>
		<path fill="#464c72" stroke="#464c72" stroke-width="2" stroke-linecap="round" stroke-linejoin="round" stroke-miterlimit="10" d="
			M107.14,105.68c0.04,0.63,0.09,1.21,0.33,1.85c2.59,7.15,0.73,13.71-2.93,19.92c-1.01,1.71-2.58,3.01-4.9,2.41
			c-1.83-0.48-3.34-2.6-3.67-4.94c-0.51-3.56-0.22-7.03,0.91-10.45c0.18-0.56-0.09-1.24,0.2-1.82"></path>
		<path fill="none" stroke="#464c72" stroke-width="2" stroke-linecap="round" stroke-linejoin="round" stroke-miterlimit="10" d="
			M95.79,65.02c-0.85,3.48-1.73,6.95-2.56,10.44c-1.59,6.72-2.88,13.49-3.87,20.33c-0.51,3.5-1.24,6.96-1.79,10.45
			c-0.14,0.9-0.15,1.88,0.34,2.74"></path>
		<path fill="#464c72" stroke="#464c72" stroke-width="2" stroke-linecap="round" stroke-linejoin="round" stroke-miterlimit="10" d="
			M240.66,43.59c-3.72,2.77-6.31,6.64-9.42,9.99c-2.41,2.6-5.02,5.01-7.48,7.55c-2.43,2.51-5.05,4.91-7.88,6.94
			c-2.95,2.11-5.6,4.63-8.75,6.46c-1.51,0.87-1.63,2.04-1.52,3.68c0.26,3.92,1.77,7.61,1.89,11.53"></path>
		<path fill="none" stroke="#464c72" stroke-width="2" stroke-linecap="round" stroke-linejoin="round" stroke-miterlimit="10" d="
			M151.47,22.89c2.83-0.64,5.72-0.92,8.61-1.07c3.15-0.16,6.19,0.71,9.15,1.65c6.02,1.9,11.85,4.37,16.45,8.81
			c4.73,4.57,9.3,9.39,12.27,15.36c1.99,4,3.34,8.28,4.44,12.62c1.09,4.28,1.61,8.65,2.17,13.01c0.09,0.72,0.16,1.36,0.76,1.83"></path>
		<path fill="none" stroke="#464c72" stroke-width="2" stroke-linecap="round" stroke-linejoin="round" stroke-miterlimit="10" d="
			M228.3,121.25c0.46,3.36,0.93,6.71,1.37,10.07c0.52,3.98,1.2,7.94,1.77,11.91c0.59,4.1,1.33,8.17,1.86,12.27
			c0.09,0.69,0.35,1.23,0.59,1.83"></path>
		<path fill="#464c72" stroke="#464c72" stroke-width="2" stroke-linecap="round" stroke-linejoin="round" stroke-miterlimit="10" d="
			M139.01,28.94c-8.67-2.85-16.24,0-23.43,4.59c-2.87,1.83-5.38,4.1-7.52,6.76"></path>
		<path fill="none" stroke="#464c72" stroke-width="2" stroke-linecap="round" stroke-linejoin="round" stroke-miterlimit="10" d="
			M108.06,91.58c1.22,0.31,2.69,0.3,3.59,1.01c0.78,0.63,0.13,2.11,0.26,3.2c0.65,5.37,0.89,10.82,2.92,15.94
			c0.69,1.73,1.56,3.34,2.76,4.75c0.42,0.49,0.84,1.12,1.55,0.57c-0.36-3.3,0.1-6.67-0.82-9.91"></path>
		<path fill="#464c72" stroke="#464c72" stroke-width="2" stroke-linecap="round" stroke-linejoin="round" stroke-miterlimit="10" d="
			M205.31,91.58c-0.35,0.37-0.71,0.69-0.74,1.28c-0.22,3.79-0.4,7.58-0.74,11.35c-0.26,2.82-0.44,5.64-1.03,8.44
			c-0.41,1.91-0.52,3.9-0.56,5.85c-0.05,2.34,1.9,3.33,3.44,4.59c2.15,1.77,4.65,2.8,7.34,3.04c2.31,0.2,4.69,0.33,6.96-0.65
			c2.83-1.22,5.66-2.49,8-4.48c1.43-1.21,2.61-2.87,3.46-4.55c0.89-1.74,2.2-3.35,2.28-5.46c0.08-1.96,0.39-3.89-0.14-5.88
			c-0.35-1.3-0.44-2.69-0.68-4.03c-0.85-4.67-4.32-7.4-7.36-10.31c-1.34-1.29-3.52-2.03-5.41-2.81c-0.93-0.38-2.17-0.38-3.08-0.29
			c-1.7,0.17-3.41-0.05-5.18,0.47c-2.4,0.71-4.38,1.92-6.37,3.25"></path>
		<path fill="none" stroke="#464c72" stroke-width="2" stroke-linecap="round" stroke-linejoin="round" stroke-miterlimit="10" d="
			M165.75,113.37c1.45-0.09,2.61,0.58,3.66,1.47c2.51,2.11,4.62,4.28,4.51,8.06c-0.06,2.15-0.16,4.17-0.78,6.24
			c-0.29,0.98,0.2,2.13-0.03,3.28c-1.55,7.56-3.22,15.08-5.89,22.34c-0.43,1.15-1.58,1.87-1.84,3.11"></path>
		<path fill="#464c72" stroke="#464c72" stroke-width="2" stroke-linecap="round" stroke-linejoin="round" stroke-miterlimit="10" d="
			M173.81,46.34c0.04-1.43-0.78-2.55-1.49-3.65c-3.08-4.81-6.89-8.84-12.25-11.2c-2.67-1.17-5.45-1.1-8.24-0.85
			c-0.28,0.03-0.49-0.13-0.74-0.06"></path>
		<path fill="none" stroke="#464c72" stroke-width="2" stroke-linecap="round" stroke-linejoin="round" stroke-miterlimit="10" d="
			M164.65,77.11c0.1,1.56-0.21,3.08-0.56,4.58c-0.89,3.77-0.21,7.34,0.86,11.01c1.86,6.34,3.35,12.79,5.58,19.02
			c0.44,1.22,0.06,2.24-0.39,3.3"></path>
		<path fill="#464c72" stroke="#464c72" stroke-width="2" stroke-linecap="round" stroke-linejoin="round" stroke-miterlimit="10" d="
			M73.08,80.4c-1.82-0.52-2.91,0.97-4.18,1.7c-3.64,2.1-5.55,5.58-6.81,9.47c-0.2,0.61-0.39,1.21-0.9,1.66
			c-0.25,0.23-0.61,0.77-0.53,0.88c1.22,1.62-0.44,3.02-0.29,4.41c0.14,1.39,0.1,2.89,0.66,4.21c0.44,1.04,0.37,1.97-0.17,3.05
			c1.09,0.57,1.69,1.39,1.44,2.65c-0.03,0.16,0.05,0.46,0.18,0.53c1.84,1.02,2,3.39,3.52,4.53c1.32,0.99,2.47,2.34,4.17,2.81"></path>
		<path fill="none" stroke="#464c72" stroke-width="2" stroke-linecap="round" stroke-linejoin="round" stroke-miterlimit="10" d="
			M115.93,59.16c-0.73,2.81-1.55,5.6-2.17,8.43c-0.65,2.97-1.16,5.97-1.64,8.97c-0.1,0.62-0.21,1.23-0.39,1.83
			c-0.41,1.3-0.03,2.55,0.09,3.85c0.3,3.34,0.02,6.71-0.27,10.06"></path>
		<path fill="none" stroke="#464c72" stroke-width="2" stroke-linecap="round" stroke-linejoin="round" stroke-miterlimit="10" d="
			M203.85,136.26c1.18,1.79,0.85,3.91,1.24,5.87c0.82,4.12,1.3,8.31,2.12,12.43c0.2,1.03,0.3,2.12,0.67,3.13"></path>
		<path fill="none" stroke="#464c72" stroke-width="2" stroke-linecap="round" stroke-linejoin="round" stroke-miterlimit="10" d="
			M102.75,84.07c-0.08,3.15-0.43,6.18-2.16,9c-1.52,2.49-2.6,5.24-4.24,7.68c-0.65,0.97-0.87,2.11-0.75,3.29"></path>
		<path fill="none" stroke="#464c72" stroke-width="2" stroke-linecap="round" stroke-linejoin="round" stroke-miterlimit="10" d="
			M119.41,112.45c0.84,0.32,1.01,1.17,1.25,1.84c0.96,2.74,2.97,3.8,5.71,3.84c0.73,0.01,1.48,0.06,2.2,0.19
			c2.13,0.39,4.05,0.5,5.35-1.82c0.87-1.55,2.59-2.56,3.06-4.42c0.04-0.16-0.11-0.36-0.17-0.55"></path>
		<path fill="none" stroke="#464c72" stroke-width="2" stroke-linecap="round" stroke-linejoin="round" stroke-miterlimit="10" d="
			M111.17,80.95c-1.75,2.54-2.23,5.53-2.9,8.43c-0.78,3.39-1.43,6.82-2.01,10.26c-0.21,1.22-0.2,2.55,0.54,3.64
			c0.4,0.59,0.67,1.16,0.72,1.84c-1.95,1.68-3.55,0.2-4.9-0.8c-0.95-0.71-1.65-0.94-2.81-0.89c-3.34,0.16-5.87,1.7-8.27,3.87
			c-2.38,2.16-3.61,4.9-3.92,7.91c-0.22,2.18,0.07,4.48,1.01,6.58"></path>
		<path fill="none" stroke="#464c72" stroke-width="2" stroke-linecap="round" stroke-linejoin="round" stroke-miterlimit="10" d="
			M77.66,16.3c-0.18,0.84,0.13,1.62,0.38,2.38c1.31,3.88,1.19,8.06,2.56,11.9c1.42,3.97,1.63,8.3,3.63,12.1
			c0.21,0.41,0.38,1.15,0.16,1.42c-0.9,1.18,0.13,1.31,0.77,1.68"></path>
		<path fill="none" stroke="#464c72" stroke-width="2" stroke-linecap="round" stroke-linejoin="round" stroke-miterlimit="10" d="
			M149.63,105.68c-2.02,5.21-5.99,8.79-10.27,12.07c-0.57,0.44-1.31,0.68-2,0.92c-1.2,0.42-1.74-0.03-1.44-1.27
			c0.27-1.15,0.9-2.24,0.53-3.48"></path>
		<path fill="none" stroke="#464c72" stroke-width="2" stroke-linecap="round" stroke-linejoin="round" stroke-miterlimit="10" d="
			M202.38,120.7c-0.79,0.7-0.68,1.64-0.75,2.56c-0.29,3.77-1.5,7.39-1.86,11.17c-0.2,2.16-0.75,4.29-1.28,6.41
			c-0.17,0.71-0.06,1.25,0.22,1.84"></path>
		<path fill="none" stroke="#464c72" stroke-width="2" stroke-linecap="round" stroke-linejoin="round" stroke-miterlimit="10" d="
			M70.88,141.03c-1.97,0.63-1.1,2.5-1.36,3.69c-0.88,4.02-1.5,8.1-2.67,12.06"></path>
		<path fill="none" stroke="#464c72" stroke-width="2" stroke-linecap="round" stroke-linejoin="round" stroke-miterlimit="10" d="
			M201.65,126.37c1.97,1.78,1.87,4.3,2.16,6.6c0.48,3.77-1.39,6.76-4.06,9.08c-1.33,1.15-2.08,2.44-2.46,3.93
			c-0.98,3.87-1.75,7.8-2.61,11.71"></path>
		<path fill="none" stroke="#464c72" stroke-width="2" stroke-linecap="round" stroke-linejoin="round" stroke-miterlimit="10" d="
			M163,89.74c-1.26,2.38-1.78,5.03-2.69,7.53c-0.52,1.42-1.09,2.82-1.73,4.18c-1.27,2.72-2.56,5.44-4.06,8.04
			c-0.6,1.04-0.43,1.84-0.13,2.78"></path>
		<path fill="none" stroke="#464c72" stroke-width="2" stroke-linecap="round" stroke-linejoin="round" stroke-miterlimit="10" d="
			M177.11,105.31c-0.37,3.42-0.64,6.85-1.16,10.25c-0.16,1.03,0.39,2.36-0.86,3.12"></path>
		<path fill="none" stroke="#464c72" stroke-width="2" stroke-linecap="round" stroke-linejoin="round" stroke-miterlimit="10" d="
			M88.28,146.52c-0.5,3.21,0.34,6.35,0.6,9.52c0.03,0.41,0.04,0.86,0.13,1.29"></path>
		<path fill="none" stroke="#464c72" stroke-width="2" stroke-linecap="round" stroke-linejoin="round" stroke-miterlimit="10" d="
			M101.83,92.12c0.71,2.21,0.51,4.52,0.72,6.78c0.12,1.35,0.68,2.77-0.35,4.03"></path>
		<path fill="none" stroke="#464c72" stroke-width="2" stroke-linecap="round" stroke-linejoin="round" stroke-miterlimit="10" d="
			M176.74,56.59c-0.03,2.17,0.58,4.27,0.84,6.4c0.15,1.17,0.07,2.34,0.26,3.49"></path>
		<path fill="none" stroke="#464c72" stroke-width="2" stroke-linecap="round" stroke-linejoin="round" stroke-miterlimit="10" d="
			M165.02,113c-2.7-0.17-5.28-1.11-8.06-0.98c-2.31,0.11-3.99,1.04-5.5,2.62c-1.43,1.5-2.92,2.94-4.56,4.23
			c-0.56,0.44-1.09,0.8-1.82,0.68c-0.4-0.85,0.04-1.37,0.32-1.99c0.81-1.8,1.49-3.65,2.23-5.48c0.24-0.61,0.25-1.22,0-1.83"></path>
		<path fill="none" stroke="#464c72" stroke-width="2" stroke-linecap="round" stroke-linejoin="round" stroke-miterlimit="10" d="
			M205.49,81.87c-0.12,0.12-0.34,0.24-0.35,0.37c-0.18,3.06-0.85,6.12,0.17,9.16"></path>
		<path fill="none" stroke="#464c72" stroke-width="2" stroke-linecap="round" stroke-linejoin="round" stroke-miterlimit="10" d="
			M215.57,103.11c-0.18,1.17-0.91,2.22-0.78,3.48c0.02,0.15-0.23,0.56-0.12,0.71c0.76,1.12,0.38,2.66,0.98,3.62
			c1.22,1.97,1.95,4.4,4.29,5.59c0.65,0.33,1.12,0.61,1.86,0.36c0.35-0.11,0.82-0.12,1.28,0.12c1.74,0.94,3.53,0.68,5.3,0.02"></path>
		<path fill="none" stroke="#464c72" stroke-width="2" stroke-linecap="round" stroke-linejoin="round" stroke-miterlimit="10" d="
			M102.38,104.58c-0.24,0.27-0.14,0.64-0.52,0.95c-1.98,1.64-3.25,3.86-4.61,6.01"></path>
		<path fill="none" stroke="#464c72" stroke-width="2" stroke-linecap="round" stroke-linejoin="round" stroke-miterlimit="10" d="
			M195.24,33.33c-1.28,0.83-2.64,0.56-4.03,0.39c-1.09-0.13-2.24-0.63-3.29,0.16"></path>
		<path fill="none" stroke="#464c72" stroke-width="2" stroke-linecap="round" stroke-linejoin="round" stroke-miterlimit="10" d="
			M92.67,150.55c-0.59,2.23-0.49,4.51-0.55,6.78"></path>
		<path fill="none" stroke="#464c72" stroke-width="2" stroke-linecap="round" stroke-linejoin="round" stroke-miterlimit="10" d="
			M160.62,112.82c-0.06,0.18-0.07,0.41-0.19,0.54c-1.51,1.66-3.04,3.3-4.57,4.95"></path>
		<path fill="none" stroke="#464c72" stroke-width="2" stroke-linecap="round" stroke-linejoin="round" stroke-miterlimit="10" d="
			M129.12,135.35c-0.37-0.12-0.82-0.15-1.09-0.38c-1.52-1.32-3.09-1.45-4.78-0.35"></path>
		<path fill="none" stroke="#464c72" stroke-width="2" stroke-linecap="round" stroke-linejoin="round" stroke-miterlimit="10" d="
			M223.81,82.6c-1.77,1.34-2.99,3.14-4.21,4.95"></path>
	</g></g>
</svg>
